<?xml version="1.0" encoding="UTF-8"?>
<svg xmlns="http://www.w3.org/2000/svg" id="uuid-d75023c9-a65f-42ea-ab4e-26862768bce2" data-name="Ebene 2" width="327.87" height="185.81" viewBox="0 0 327.87 185.81">
  <defs>
    <style>
      .uuid-63fc089a-47b0-4063-884c-b7b2e7273ec0 {
        fill: #fff;
      }
    </style>
  </defs>
  <g id="uuid-6a5a2fc9-9c44-45c7-bb37-af9054adf40d" data-name="MITGLIEDSUNTERNEHMEN">
    <g>
      <path class="uuid-63fc089a-47b0-4063-884c-b7b2e7273ec0" d="M3.5,163.92l5.64,17.62,5.64-17.62h3.5v21.59h-2.71v-8.41l.25-8.42-5.65,16.83h-2.08l-5.62-16.77.25,8.36v8.41H0v-21.59h3.5Z"></path>
      <path class="uuid-63fc089a-47b0-4063-884c-b7b2e7273ec0" d="M25.78,185.52h-2.71v-21.59h2.71v21.59Z"></path>
      <path class="uuid-63fc089a-47b0-4063-884c-b7b2e7273ec0" d="M42.73,166.25h-5.68v19.26h-2.71v-19.26h-5.67v-2.33h14.06v2.33Z"></path>
      <path class="uuid-63fc089a-47b0-4063-884c-b7b2e7273ec0" d="M59.01,182.83l-.47.59c-1.36,1.59-3.36,2.39-5.99,2.39-2.33,0-4.16-.77-5.49-2.32s-2.01-3.73-2.04-6.56v-4.24c0-3.03.61-5.29,1.82-6.8,1.21-1.51,3.02-2.26,5.43-2.26,2.06,0,3.67.57,4.83,1.71,1.16,1.14,1.8,2.78,1.92,4.9h-2.71c-.11-1.34-.48-2.4-1.12-3.15s-1.6-1.13-2.9-1.13c-1.55,0-2.69.51-3.41,1.52s-1.1,2.63-1.13,4.86v4.4c0,2.18.42,3.84,1.25,5s2.02,1.74,3.57,1.74c1.46,0,2.58-.35,3.34-1.06l.4-.37v-4.96h-3.94v-2.33h6.66v8.07Z"></path>
      <path class="uuid-63fc089a-47b0-4063-884c-b7b2e7273ec0" d="M66.17,183.19h8.47v2.33h-11.2v-21.59h2.73v19.26Z"></path>
      <path class="uuid-63fc089a-47b0-4063-884c-b7b2e7273ec0" d="M80.71,185.52h-2.71v-21.59h2.71v21.59Z"></path>
      <path class="uuid-63fc089a-47b0-4063-884c-b7b2e7273ec0" d="M95.82,175.53h-7.64v7.65h8.9v2.33h-11.61v-21.59h11.46v2.33h-8.75v6.96h7.64v2.33Z"></path>
      <path class="uuid-63fc089a-47b0-4063-884c-b7b2e7273ec0" d="M100.55,185.52v-21.59h5.15c2.52,0,4.48.79,5.87,2.36,1.39,1.58,2.09,3.79,2.09,6.65v3.62c0,2.86-.71,5.06-2.12,6.62-1.41,1.56-3.47,2.34-6.15,2.34h-4.83ZM103.27,166.25v16.94h2.18c1.91,0,3.3-.55,4.18-1.64s1.33-2.71,1.35-4.86v-3.83c0-2.28-.44-3.95-1.31-5.01-.87-1.06-2.2-1.6-3.97-1.6h-2.43Z"></path>
      <path class="uuid-63fc089a-47b0-4063-884c-b7b2e7273ec0" d="M127.32,180.06c0-1.08-.29-1.9-.88-2.48s-1.64-1.13-3.16-1.68-2.69-1.12-3.49-1.71-1.41-1.28-1.81-2.05c-.4-.77-.6-1.64-.6-2.63,0-1.71.57-3.12,1.71-4.23,1.14-1.11,2.64-1.66,4.49-1.66,1.27,0,2.39.28,3.38.85.99.56,1.75,1.35,2.28,2.36.53,1.01.8,2.11.8,3.32h-2.73c0-1.33-.32-2.37-.96-3.1s-1.57-1.1-2.77-1.1c-1.1,0-1.95.31-2.55.92s-.9,1.48-.9,2.59c0,.91.33,1.67.98,2.29s1.66,1.16,3.03,1.65c2.13.7,3.65,1.57,4.56,2.6s1.37,2.37,1.37,4.03c0,1.75-.57,3.15-1.71,4.2s-2.68,1.58-4.64,1.58c-1.26,0-2.42-.27-3.48-.82s-1.9-1.32-2.51-2.31c-.61-.99-.91-2.13-.91-3.42h2.73c0,1.33.37,2.37,1.12,3.11.75.74,1.76,1.11,3.05,1.11,1.2,0,2.1-.31,2.7-.92s.9-1.45.9-2.51Z"></path>
      <path class="uuid-63fc089a-47b0-4063-884c-b7b2e7273ec0" d="M146.5,163.92v15.35c-.02,2.05-.61,3.65-1.78,4.81s-2.79,1.74-4.88,1.74-3.77-.57-4.89-1.7-1.7-2.75-1.72-4.84v-15.35h2.7v15.23c0,1.45.31,2.54.93,3.25.62.72,1.61,1.07,2.99,1.07s2.38-.36,3-1.07c.62-.72.93-1.8.93-3.25v-15.23h2.73Z"></path>
      <path class="uuid-63fc089a-47b0-4063-884c-b7b2e7273ec0" d="M164.78,185.52h-2.73l-8.65-16.64v16.64h-2.73v-21.59h2.73l8.68,16.71v-16.71h2.7v21.59Z"></path>
      <path class="uuid-63fc089a-47b0-4063-884c-b7b2e7273ec0" d="M181.67,166.25h-5.68v19.26h-2.71v-19.26h-5.67v-2.33h14.06v2.33Z"></path>
      <path class="uuid-63fc089a-47b0-4063-884c-b7b2e7273ec0" d="M195.22,175.53h-7.64v7.65h8.9v2.33h-11.61v-21.59h11.46v2.33h-8.75v6.96h7.64v2.33Z"></path>
      <path class="uuid-63fc089a-47b0-4063-884c-b7b2e7273ec0" d="M206.47,176.78h-3.8v8.74h-2.73v-21.59h6.05c2.12,0,3.72.55,4.81,1.65s1.63,2.72,1.63,4.84c0,1.33-.29,2.5-.88,3.49s-1.42,1.74-2.5,2.25l4.18,9.18v.18h-2.92l-3.84-8.74ZM202.68,174.45h3.29c1.14,0,2.04-.37,2.72-1.1.68-.73,1.02-1.71,1.02-2.94,0-2.77-1.26-4.16-3.77-4.16h-3.26v8.2Z"></path>
      <path class="uuid-63fc089a-47b0-4063-884c-b7b2e7273ec0" d="M230.17,185.52h-2.73l-8.65-16.64v16.64h-2.73v-21.59h2.73l8.68,16.71v-16.71h2.7v21.59Z"></path>
      <path class="uuid-63fc089a-47b0-4063-884c-b7b2e7273ec0" d="M245.22,175.53h-7.64v7.65h8.9v2.33h-11.61v-21.59h11.46v2.33h-8.75v6.96h7.64v2.33Z"></path>
      <path class="uuid-63fc089a-47b0-4063-884c-b7b2e7273ec0" d="M264.09,185.52h-2.73v-9.98h-8.69v9.98h-2.71v-21.59h2.71v9.28h8.69v-9.28h2.73v21.59Z"></path>
      <path class="uuid-63fc089a-47b0-4063-884c-b7b2e7273ec0" d="M272.29,163.92l5.64,17.62,5.64-17.62h3.5v21.59h-2.71v-8.41l.25-8.42-5.65,16.83h-2.08l-5.62-16.77.25,8.36v8.41h-2.71v-21.59h3.5Z"></path>
      <path class="uuid-63fc089a-47b0-4063-884c-b7b2e7273ec0" d="M302.08,175.53h-7.64v7.65h8.9v2.33h-11.61v-21.59h11.46v2.33h-8.75v6.96h7.64v2.33Z"></path>
      <path class="uuid-63fc089a-47b0-4063-884c-b7b2e7273ec0" d="M320.92,185.52h-2.73l-8.65-16.64v16.64h-2.73v-21.59h2.73l8.68,16.71v-16.71h2.7v21.59Z"></path>
    </g>
    <g>
      <path class="uuid-63fc089a-47b0-4063-884c-b7b2e7273ec0" d="M135.59,69.55c-1.07,36.53-31.02,66.04-67.79,66.04S0,105.22,0,67.77,29.64,1.23,66.04,0v28.51c-21.07.71-37.52,18.01-37.52,39.26s17.58,39.28,39.27,39.28,38.49-16.49,39.25-37.51h28.54ZM72.26.03h28.48v28.49h-28.48V.03h0ZM107.04,34.8h28.48v28.49h-28.48v-28.49h0ZM107.04.03h28.48v28.49h-28.48V.03h0ZM72.26,34.8h28.48v28.49h-28.48v-28.49h0Z"></path>
      <g>
        <path class="uuid-63fc089a-47b0-4063-884c-b7b2e7273ec0" d="M154.34,28.49V0h6.79c3.33,0,5.91,1.04,7.75,3.12,1.84,2.08,2.76,5.01,2.76,8.77v4.77c0,3.77-.93,6.68-2.8,8.74-1.87,2.05-4.57,3.08-8.12,3.08h-6.38ZM157.92,3.07v22.34h2.88c2.52,0,4.36-.72,5.52-2.16,1.16-1.44,1.75-3.58,1.78-6.41v-5.05c0-3-.58-5.21-1.73-6.61s-2.9-2.11-5.23-2.11h-3.21Z"></path>
        <path class="uuid-63fc089a-47b0-4063-884c-b7b2e7273ec0" d="M183.49,28.88c-2.64,0-4.66-.79-6.07-2.36-1.41-1.57-2.13-3.88-2.15-6.92v-2.56c0-3.16.69-5.63,2.06-7.42,1.38-1.79,3.3-2.69,5.76-2.69s4.33.79,5.56,2.37c1.23,1.58,1.85,4.04,1.88,7.38v2.27h-11.82v.49c0,2.27.43,3.92,1.28,4.95.85,1.03,2.08,1.55,3.69,1.55,1.02,0,1.91-.19,2.69-.58.78-.38,1.5-.99,2.18-1.83l1.8,2.19c-1.5,2.11-3.79,3.17-6.87,3.17ZM183.1,9.9c-1.44,0-2.5.49-3.19,1.48-.69.99-1.08,2.51-1.17,4.59h8.33v-.47c-.09-2.01-.45-3.44-1.09-4.3-.63-.86-1.59-1.29-2.89-1.29Z"></path>
        <path class="uuid-63fc089a-47b0-4063-884c-b7b2e7273ec0" d="M202.63,10.56c-.48-.09-1-.14-1.57-.14-1.77,0-3.01.97-3.72,2.92v15.14h-3.46V7.32h3.37l.06,2.15c.93-1.7,2.24-2.54,3.93-2.54.55,0,1,.09,1.37.27l.02,3.37Z"></path>
      </g>
      <g>
        <path class="uuid-63fc089a-47b0-4063-884c-b7b2e7273ec0" d="M158.96,34.79l7.43,23.24,7.43-23.24h4.62v28.49h-3.58v-11.09l.33-11.11-7.45,22.21h-2.74l-7.41-22.13.33,11.03v11.09h-3.58v-28.49h4.62Z"></path>
        <path class="uuid-63fc089a-47b0-4063-884c-b7b2e7273ec0" d="M186.25,63.28h-3.46v-21.17h3.46v21.17Z"></path>
        <path class="uuid-63fc089a-47b0-4063-884c-b7b2e7273ec0" d="M197.03,36.98v5.13h3.19v2.8h-3.19v13.14c0,.84.14,1.47.41,1.9s.74.65,1.41.65c.46,0,.92-.08,1.39-.23l-.04,2.92c-.78.26-1.58.39-2.41.39-1.37,0-2.41-.49-3.13-1.47-.72-.98-1.08-2.36-1.08-4.15v-13.15h-3.23v-2.8h3.23v-5.13h3.44Z"></path>
        <path class="uuid-63fc089a-47b0-4063-884c-b7b2e7273ec0" d="M208.87,36.98v5.13h3.19v2.8h-3.19v13.14c0,.84.14,1.47.41,1.9s.74.65,1.41.65c.46,0,.92-.08,1.39-.23l-.04,2.92c-.78.26-1.58.39-2.41.39-1.37,0-2.41-.49-3.13-1.47-.72-.98-1.08-2.36-1.08-4.15v-13.15h-3.23v-2.8h3.23v-5.13h3.44Z"></path>
        <path class="uuid-63fc089a-47b0-4063-884c-b7b2e7273ec0" d="M222.93,63.67c-2.63,0-4.66-.79-6.07-2.36-1.41-1.57-2.13-3.88-2.15-6.92v-2.56c0-3.16.69-5.63,2.06-7.42,1.38-1.79,3.3-2.69,5.76-2.69s4.33.79,5.56,2.37c1.23,1.58,1.85,4.04,1.88,7.38v2.27h-11.82v.49c0,2.27.43,3.92,1.28,4.95.85,1.03,2.08,1.55,3.69,1.55,1.02,0,1.92-.19,2.69-.58.78-.38,1.5-.99,2.18-1.83l1.8,2.19c-1.5,2.11-3.79,3.17-6.87,3.17ZM222.54,44.69c-1.43,0-2.5.49-3.19,1.48-.69.99-1.08,2.51-1.17,4.59h8.33v-.47c-.09-2.01-.45-3.44-1.09-4.3-.63-.86-1.59-1.29-2.89-1.29Z"></path>
        <path class="uuid-63fc089a-47b0-4063-884c-b7b2e7273ec0" d="M237.06,63.28h-3.46v-30.05h3.46v30.05Z"></path>
        <path class="uuid-63fc089a-47b0-4063-884c-b7b2e7273ec0" d="M251.19,57.86c0-.74-.28-1.38-.84-1.92-.56-.53-1.64-1.16-3.25-1.88-1.87-.77-3.18-1.43-3.94-1.98s-1.33-1.17-1.71-1.87c-.38-.7-.57-1.53-.57-2.49,0-1.72.63-3.15,1.89-4.29,1.26-1.14,2.87-1.71,4.82-1.71,2.06,0,3.72.6,4.97,1.8,1.25,1.2,1.88,2.74,1.88,4.62h-3.44c0-.95-.32-1.76-.96-2.44-.64-.67-1.45-1.01-2.45-1.01s-1.82.26-2.4.79c-.58.53-.87,1.23-.87,2.12,0,.7.21,1.27.64,1.7.42.43,1.44.99,3.06,1.7,2.57,1.01,4.32,1.99,5.24,2.95.93.96,1.39,2.18,1.39,3.65,0,1.84-.63,3.31-1.9,4.42s-2.96,1.66-5.09,1.66-3.99-.63-5.36-1.9c-1.37-1.26-2.05-2.87-2.05-4.81h3.48c.04,1.17.4,2.09,1.08,2.76s1.63,1,2.86,1c1.15,0,2.02-.26,2.62-.77.6-.52.9-1.21.9-2.08Z"></path>
        <path class="uuid-63fc089a-47b0-4063-884c-b7b2e7273ec0" d="M263.69,36.98v5.13h3.19v2.8h-3.19v13.14c0,.84.14,1.47.41,1.9s.74.65,1.41.65c.46,0,.92-.08,1.39-.23l-.04,2.92c-.78.26-1.58.39-2.41.39-1.37,0-2.41-.49-3.13-1.47s-1.08-2.36-1.08-4.15v-13.15h-3.23v-2.8h3.23v-5.13h3.44Z"></path>
        <path class="uuid-63fc089a-47b0-4063-884c-b7b2e7273ec0" d="M281.08,63.28c-.21-.46-.36-1.23-.45-2.31-1.23,1.8-2.79,2.7-4.7,2.7s-3.41-.54-4.49-1.61-1.61-2.59-1.61-4.55c0-2.15.73-3.86,2.19-5.13,1.46-1.26,3.46-1.91,6.01-1.94h2.54v-2.25c0-1.26-.28-2.16-.84-2.7-.56-.53-1.42-.8-2.56-.8-1.04,0-1.89.31-2.54.93-.65.62-.98,1.41-.98,2.36h-3.46c0-1.08.32-2.12.96-3.1.64-.98,1.5-1.76,2.58-2.32,1.08-.56,2.29-.84,3.62-.84,2.16,0,3.81.54,4.94,1.61s1.71,2.64,1.73,4.71v10.68c.01,1.63.23,3.05.67,4.25v.31h-3.6ZM276.47,60.52c.85,0,1.66-.23,2.43-.7s1.33-1.06,1.68-1.76v-5.05h-1.96c-1.64.03-2.94.39-3.89,1.11-.95.71-1.43,1.71-1.43,2.98,0,1.2.24,2.07.72,2.61.48.54,1.3.81,2.45.81Z"></path>
        <path class="uuid-63fc089a-47b0-4063-884c-b7b2e7273ec0" d="M291.04,42.11l.1,2.29c1.34-1.79,3.06-2.68,5.15-2.68,3.74,0,5.64,2.5,5.69,7.49v14.07h-3.44v-13.91c0-1.66-.28-2.83-.83-3.53-.55-.7-1.39-1.05-2.49-1.05-.86,0-1.63.29-2.32.86-.68.57-1.24,1.32-1.65,2.25v15.38h-3.46v-21.17h3.27Z"></path>
        <path class="uuid-63fc089a-47b0-4063-884c-b7b2e7273ec0" d="M305.64,51.73c0-3.26.61-5.75,1.83-7.45,1.22-1.71,2.97-2.56,5.25-2.56,2.02,0,3.6.82,4.73,2.47v-10.96h3.46v30.05h-3.17l-.18-2.27c-1.13,1.77-2.76,2.66-4.87,2.66s-3.91-.85-5.16-2.55-1.88-4.11-1.91-7.21v-2.17ZM309.1,53.7c0,2.37.35,4.11,1.06,5.23.7,1.11,1.85,1.67,3.44,1.67,1.72,0,3.01-.87,3.85-2.6v-10.67c-.89-1.69-2.16-2.54-3.83-2.54s-2.74.56-3.44,1.67c-.7,1.11-1.06,2.82-1.08,5.13v2.11Z"></path>
        <rect class="uuid-63fc089a-47b0-4063-884c-b7b2e7273ec0" x="324.41" y="59.82" width="3.46" height="3.46"></rect>
        <rect class="uuid-63fc089a-47b0-4063-884c-b7b2e7273ec0" x="182.79" y="34.8" width="3.46" height="3.46"></rect>
      </g>
      <g>
        <path class="uuid-63fc089a-47b0-4063-884c-b7b2e7273ec0" d="M154.34,95.3v-25.71h7.33c2.34,0,4.11.57,5.29,1.71,1.18,1.14,1.77,2.86,1.77,5.14,0,1.2-.3,2.26-.9,3.18s-1.41,1.63-2.44,2.14c1.18.35,2.11,1.08,2.8,2.17s1.03,2.41,1.03,3.96c0,2.31-.63,4.12-1.9,5.44-1.27,1.32-3.07,1.98-5.41,1.98h-7.58ZM157.57,80.55h4.15c1.12,0,2.02-.38,2.71-1.13.69-.75,1.03-1.76,1.03-3.01,0-1.42-.31-2.44-.94-3.09-.62-.64-1.58-.97-2.86-.97h-4.1v8.19ZM157.57,83.27v9.25h4.42c1.22,0,2.2-.4,2.91-1.21.72-.81,1.08-1.94,1.08-3.4,0-3.1-1.31-4.64-3.92-4.64h-4.49Z"></path>
        <path class="uuid-63fc089a-47b0-4063-884c-b7b2e7273ec0" d="M180.99,90.34l5.88-20.75h3.55l-8,25.71h-2.83l-7.98-25.71h3.53l5.85,20.75Z"></path>
        <path class="uuid-63fc089a-47b0-4063-884c-b7b2e7273ec0" d="M198.07,69.59l6.71,20.98,6.71-20.98h4.17v25.71h-3.23v-10.01l.3-10.03-6.73,20.05h-2.47l-6.69-19.97.3,9.96v10.01h-3.23v-25.71h4.17Z"></path>
        <path class="uuid-63fc089a-47b0-4063-884c-b7b2e7273ec0" d="M226.13,87.19l.34,2.88.51-2.54,4.12-17.94h2.7l3.99,17.94.51,2.61.37-2.97,3.14-17.59h3.23l-5.12,25.71h-2.91l-4.29-18.74-.26-1.52-.26,1.52-4.45,18.74h-2.93l-5.1-25.71h3.23l3.2,17.61Z"></path>
      </g>
    </g>
  </g>
</svg>
