<?xml version="1.0" encoding="UTF-8"?>
<svg xmlns="http://www.w3.org/2000/svg" viewBox="0 0 340 150"
     role="img" aria-labelledby="title desc">
  <title id="title">TRUST Unternehmer. Nicht allein.</title>
  <desc id="desc">Hauptlogo TRUST Unternehmer mit Signet, fuer helle Hintergruende.</desc>
  <g id="signet">
  <rect x="20" y="30" width="90" height="90" rx="6" fill="#00305b"/>
  <rect x="40" y="48" width="50" height="10" fill="#f18423"/>
  <rect x="60" y="48" width="10" height="54" fill="#f18423"/>
  </g>
  <g id="wortmarke" fill="#00305b">
  <path transform="translate(128.000,67.000) scale(0.02148,-0.02148)" d="M9 1493H1247V1202H802V0H455V1202H9Z"/>
<path transform="translate(156.506,67.000) scale(0.02148,-0.02148)" d="M662 831Q770 831 817.5 876.0Q865 921 865 1024Q865 1126 817.5 1170.0Q770 1214 662 1214H516V831ZM516 565V0H169V1493H698Q964 1493 1087.5 1394.0Q1211 1295 1211 1081Q1211 933 1147.0 838.0Q1083 743 953 698Q1024 680 1080.5 616.5Q1137 553 1194 424L1382 0H1013L850 371Q800 483 749.0 524.0Q698 565 614 565Z"/>
<path transform="translate(188.492,67.000) scale(0.02148,-0.02148)" d="M169 1493H516V598Q516 413 570.5 333.5Q625 254 748 254Q872 254 926.5 333.5Q981 413 981 598V1493H1328V598Q1328 281 1184.5 126.0Q1041 -29 748 -29Q455 -29 312.0 126.0Q169 281 169 598Z"/>
<path transform="translate(222.133,67.000) scale(0.02148,-0.02148)" d="M1104 1446V1130Q994 1185 888.5 1213.0Q783 1241 689 1241Q565 1241 505.5 1203.0Q446 1165 446 1085Q446 1025 486.0 991.5Q526 958 632 934L779 901Q1004 851 1098.0 749.0Q1192 647 1192 459Q1192 212 1060.5 91.5Q929 -29 658 -29Q530 -29 401.5 -2.0Q273 25 144 78V403Q273 327 393.0 288.5Q513 250 625 250Q738 250 798.5 292.0Q859 334 859 412Q859 482 818.0 520.0Q777 558 654 588L520 621Q319 669 225.5 774.0Q132 879 132 1057Q132 1280 262.0 1400.0Q392 1520 634 1520Q745 1520 862.0 1501.5Q979 1483 1104 1446Z"/>
<path transform="translate(252.143,67.000) scale(0.02148,-0.02148)" d="M9 1493H1247V1202H802V0H455V1202H9Z"/>
  </g>
  <g id="zusatz" fill="#00305b">
  <path transform="translate(128.000,89.000) scale(0.00635,-0.00635)" d="M169 1493H516V598Q516 413 570.5 333.5Q625 254 748 254Q872 254 926.5 333.5Q981 413 981 598V1493H1328V598Q1328 281 1184.5 126.0Q1041 -29 748 -29Q455 -29 312.0 126.0Q169 281 169 598Z"/>
<path transform="translate(140.496,89.000) scale(0.00635,-0.00635)" d="M169 1493H556L1045 469V1493H1373V0H986L498 1024V0H169Z"/>
<path transform="translate(153.284,89.000) scale(0.00635,-0.00635)" d="M9 1493H1247V1202H802V0H455V1202H9Z"/>
<path transform="translate(164.263,89.000) scale(0.00635,-0.00635)" d="M169 1493H1104V1202H516V924H1069V633H516V291H1124V0H169Z"/>
<path transform="translate(175.255,89.000) scale(0.00635,-0.00635)" d="M662 831Q770 831 817.5 876.0Q865 921 865 1024Q865 1126 817.5 1170.0Q770 1214 662 1214H516V831ZM516 565V0H169V1493H698Q964 1493 1087.5 1394.0Q1211 1295 1211 1081Q1211 933 1147.0 838.0Q1083 743 953 698Q1024 680 1080.5 616.5Q1137 553 1194 424L1382 0H1013L850 371Q800 483 749.0 524.0Q698 565 614 565Z"/>
<path transform="translate(187.262,89.000) scale(0.00635,-0.00635)" d="M169 1493H556L1045 469V1493H1373V0H986L498 1024V0H169Z"/>
<path transform="translate(200.050,89.000) scale(0.00635,-0.00635)" d="M169 1493H1104V1202H516V924H1069V633H516V291H1124V0H169Z"/>
<path transform="translate(211.042,89.000) scale(0.00635,-0.00635)" d="M169 1493H516V924H1027V1493H1373V0H1027V633H516V0H169Z"/>
<path transform="translate(223.830,89.000) scale(0.00635,-0.00635)" d="M169 1493H610L916 694L1224 1493H1664V0H1336V1092L1027 287H807L498 1092V0H169Z"/>
<path transform="translate(238.472,89.000) scale(0.00635,-0.00635)" d="M169 1493H1104V1202H516V924H1069V633H516V291H1124V0H169Z"/>
<path transform="translate(249.463,89.000) scale(0.00635,-0.00635)" d="M662 831Q770 831 817.5 876.0Q865 921 865 1024Q865 1126 817.5 1170.0Q770 1214 662 1214H516V831ZM516 565V0H169V1493H698Q964 1493 1087.5 1394.0Q1211 1295 1211 1081Q1211 933 1147.0 838.0Q1083 743 953 698Q1024 680 1080.5 616.5Q1137 553 1194 424L1382 0H1013L850 371Q800 483 749.0 524.0Q698 565 614 565Z"/>
  </g>
  <g id="claim-text" fill="#00305b">
  <path transform="translate(128.000,120.000) scale(0.00830,-0.00830)" d="M311 1493H556L927 213L1152 1493H1329L1067 0H822L452 1288L227 0H50Z"/>
<path transform="translate(139.438,120.000) scale(0.00830,-0.00830)" d="M338 1556H503L463 1323H297ZM262 1120H428L230 0H65Z"/>
<path transform="translate(143.688,120.000) scale(0.00830,-0.00830)" d="M988 1077 955 895Q896 943 828.5 967.0Q761 991 689 991Q610 991 538.5 960.0Q467 929 418 872Q341 785 298.5 668.0Q256 551 256 426Q256 275 324.0 201.0Q392 127 531 127Q599 127 676.0 150.0Q753 173 837 219L806 37Q734 4 657.5 -12.5Q581 -29 501 -29Q301 -29 193.0 82.5Q85 194 85 401Q85 575 141.0 721.5Q197 868 308 985Q383 1065 485.0 1106.0Q587 1147 707 1147Q778 1147 847.0 1129.5Q916 1112 988 1077Z"/>
<path transform="translate(152.097,120.000) scale(0.00830,-0.00830)" d="M1027 676 909 0H742L860 669Q868 716 873.0 752.0Q878 788 878 809Q878 893 830.0 940.0Q782 987 697 987Q563 987 465.5 887.0Q368 787 339 621L230 0H65L338 1556H503L396 944Q459 1038 557.0 1092.5Q655 1147 763 1147Q896 1147 969.5 1067.0Q1043 987 1043 842Q1043 806 1039.0 765.0Q1035 724 1027 676Z"/>
<path transform="translate(161.792,120.000) scale(0.00830,-0.00830)" d="M779 1120 754 977H424L317 369Q311 335 308.5 312.0Q306 289 306 276Q306 212 340.5 183.0Q375 154 452 154H619L591 0H433Q285 0 212.5 64.0Q140 128 140 258Q140 281 143.0 308.5Q146 336 151 369L258 977H118L144 1120H282L338 1438H503L448 1120Z"/>
<path transform="translate(172.642,120.000) scale(0.00830,-0.00830)" d="M990 639 878 0H712L742 170Q670 70 576.5 20.5Q483 -29 369 -29Q240 -29 158.0 58.5Q76 146 76 283Q76 479 216.5 593.0Q357 707 605 707H835L844 756Q846 764 847.0 773.5Q848 783 848 803Q848 892 782.5 941.5Q717 991 599 991Q518 991 433.0 968.0Q348 945 258 899L287 1069Q381 1108 470.5 1127.5Q560 1147 644 1147Q822 1147 915.0 1061.0Q1008 975 1008 811Q1008 778 1003.5 733.5Q999 689 990 639ZM811 563H645Q442 563 344.5 502.5Q247 442 247 315Q247 227 296.5 177.0Q346 127 435 127Q570 127 670.5 234.5Q771 342 804 522Z"/>
<path transform="translate(182.013,120.000) scale(0.00830,-0.00830)" d="M338 1556H503L230 0H65Z"/>
<path transform="translate(186.263,120.000) scale(0.00830,-0.00830)" d="M338 1556H503L230 0H65Z"/>
<path transform="translate(190.513,120.000) scale(0.00830,-0.00830)" d="M886 660Q889 676 890.5 693.0Q892 710 892 727Q892 849 827.5 920.0Q763 991 652 991Q529 991 434.5 904.5Q340 818 292 659ZM1030 516H260Q255 478 253.0 456.0Q251 434 251 418Q251 279 328.0 203.0Q405 127 545 127Q653 127 749.5 154.0Q846 181 929 233L897 51Q808 11 713.0 -9.0Q618 -29 520 -29Q310 -29 197.5 82.5Q85 194 85 399Q85 574 141.0 724.5Q197 875 306 993Q376 1067 473.0 1107.0Q570 1147 679 1147Q850 1147 951.0 1033.0Q1052 919 1052 727Q1052 681 1046.5 628.5Q1041 576 1030 516Z"/>
<path transform="translate(199.926,120.000) scale(0.00830,-0.00830)" d="M338 1556H503L463 1323H297ZM262 1120H428L230 0H65Z"/>
<path transform="translate(204.176,120.000) scale(0.00830,-0.00830)" d="M1027 676 909 0H742L860 669Q868 716 873.0 752.0Q878 788 878 809Q878 893 830.0 940.0Q782 987 697 987Q563 987 467.0 888.5Q371 790 341 621L230 0H65L260 1120H426L392 944Q462 1041 559.0 1094.0Q656 1147 763 1147Q896 1147 969.5 1067.0Q1043 987 1043 842Q1043 806 1039.0 765.0Q1035 724 1027 676Z"/>
  </g>
  <g id="claim-punkt" fill="#f18423">
  <path transform="translate(213.872,120.000) scale(0.00830,-0.00830)" d="M188 387H512V0H188Z"/>
  </g>
</svg>
